<?xml version="1.0" standalone="no"?><!DOCTYPE svg PUBLIC "-//W3C//DTD SVG 1.1//EN" "http://www.w3.org/Graphics/SVG/1.1/DTD/svg11.dtd"><svg t="1689218100875" class="icon" viewBox="0 0 1024 1024" version="1.1" xmlns="http://www.w3.org/2000/svg" p-id="1007" xmlns:xlink="http://www.w3.org/1999/xlink" width="48" height="48"><path d="M343.04 421.56032V158.02368c0-51.6096 77.57824-71.5776 163.1232-72.704 33.09568 0 64.47104 3.33824 93.55264 9.44128 38.21568 11.10016 61.60384 31.06816 61.60384 63.26272v263.53664c0 52.71552-70.71744 104.30464-158.57664 104.30464-87.83872 0-159.70304-51.6096-159.70304-104.30464z m72.43776-102.64576c0 45.50656 38.21568 82.67776 84.992 82.67776 46.77632 0 84.41856-37.1712 84.992-82.67776 0-45.48608-38.21568-82.65728-84.992-82.65728-46.77632 0-84.992 37.1712-84.992 82.65728z" fill="#8288A8" p-id="1008"></path><path d="M501.61664 732.2624c155.15648 0 318.8736-116.51072 318.8736-154.78784l0.55296-281.2928c0-62.1568-41.0624-118.74304-106.65984-157.57312V447.0784c0 64.34816-80.42496 128.16384-212.19328 129.82272-118.64064 1.10592-211.61984-65.47456-211.61984-129.8432V140.288c-65.024 38.83008-106.0864 94.3104-106.0864 155.91424v281.2928c-0.59392 31.06816 164.84352 154.78784 317.1328 154.78784z" fill="#8288A8" p-id="1009"></path><path d="M874.0864 629.06368c-83.27168 88.22784-226.44736 154.25536-347.9552 154.25536h-49.60256c-87.28576 0-242.44224-42.72128-345.088-154.25536L128 844.9024c59.88352 70.4512 214.46656 93.75744 379.33056 93.75744 154.0096 0 297.1648-24.96512 367.32928-84.8896l-0.55296-224.70656z" fill="#8288A8" p-id="1010"></path></svg>