<?xml version="1.0" standalone="no"?><!DOCTYPE svg PUBLIC "-//W3C//DTD SVG 1.1//EN" "http://www.w3.org/Graphics/SVG/1.1/DTD/svg11.dtd"><svg t="1689218119051" class="icon" viewBox="0 0 1024 1024" version="1.1" xmlns="http://www.w3.org/2000/svg" p-id="1190" xmlns:xlink="http://www.w3.org/1999/xlink" width="48" height="48"><path d="M380.88704 355.5328c0-59.8016 47.16544-108.07296 105.08288-108.07296 57.91744 0 105.08288 48.27136 105.08288 108.09344 0 59.8016-46.91968 108.09344-105.0624 108.09344-58.1632 0-105.10336-48.5376-105.10336-108.09344z m52.55168 0c0 29.7984 23.57248 54.0672 52.5312 54.0672s52.55168-24.2688 52.55168-54.0672c0-29.77792-23.59296-54.02624-52.55168-54.02624s-52.5312 24.24832-52.5312 54.04672z" fill="#8288A8" p-id="1191"></path><path d="M748.6464 571.74016v54.04672a2545.99168 2545.99168 0 0 1 52.5312 108.07296c0 54.0672-1.86368 105.94304-1.86368 105.94304-14.06976 7.7824-28.0576 15.21664-41.94304 22.65088-20.48 10.93632-40.83712 21.8112-61.27616 33.54624H275.74272c-16.896-7.9872-32.21504-16.03584-52.85888-26.89024-14.17216-7.43424-30.84288-16.19968-52.224-27.15648v-108.09344c11.5712-28.0576 24.1664-52.57216 37.76512-79.0528 4.8128-9.35936 9.728-18.944 14.78656-29.02016v-54.0672s-10.0352-54.272-52.55168-165.4784V193.4336c41.5744-26.33728 79.17568-52.89984 113.9712-77.49632 15.0528-10.62912 29.57312-20.8896 43.66336-30.59712h315.24864c61.19424 40.59136 117.94432 78.78656 155.5456 108.09344l0.9216 216.8832-5.38624 17.16224c-8.43776 26.95168-24.4736 78.27456-45.9776 144.26112zM328.2944 733.85984c11.44832 15.1552 105.08288 108.09344 105.08288 108.09344h105.08288s54.8864-55.23456 105.08288-108.09344h-52.5312c-6.5536 4.44416-16.40448 15.74912-26.27584 27.0336-9.87136 11.28448-19.72224 22.56896-26.27584 27.0336-43.88864 2.39616-51.83488 2.62144-105.0624 0-6.67648-4.73088-16.73216-15.64672-29.0816-29.06112a1256.91904 1256.91904 0 0 0-23.47008-24.9856H328.2944z m105.08288-54.04672h105.08288s54.8864-55.23456 105.08288-108.07296h-52.5312c-6.5536 4.44416-16.40448 15.72864-26.27584 27.0336-9.87136 11.264-19.72224 22.56896-26.27584 27.01312-43.88864 2.39616-51.83488 2.64192-105.0624 0-6.67648-4.73088-16.73216-15.64672-29.0816-29.04064a1251.28704 1251.28704 0 0 0-23.47008-25.00608H328.2944c11.44832 15.13472 105.08288 108.07296 105.08288 108.07296zM328.2944 355.55328c0 89.6 70.53312 162.14016 157.63456 162.14016s157.63456-72.54016 157.63456-162.14016-70.53312-162.11968-157.63456-162.11968-157.63456 72.51968-157.63456 162.11968z" fill="#8288A8" p-id="1192"></path></svg>