<?xml version="1.0" standalone="no"?><!DOCTYPE svg PUBLIC "-//W3C//DTD SVG 1.1//EN" "http://www.w3.org/Graphics/SVG/1.1/DTD/svg11.dtd"><svg t="1691632589004" class="icon" viewBox="0 0 1024 1024" version="1.1" xmlns="http://www.w3.org/2000/svg" p-id="5050" xmlns:xlink="http://www.w3.org/1999/xlink" width="48" height="48"><path d="M536.789333 79.104h-0.085333a18.090667 18.090667 0 0 0-12.032 0.213333c-3.669333 1.408-5.248 3.456-5.802667 4.693334a2.901333 2.901333 0 0 0-0.256 1.194666v848.682667h40.832c15.445333 0 27.946667 14.549333 27.946667 32.554667s-12.501333 32.597333-27.946667 32.597333H56.746667c-15.402667 0-27.904-14.592-27.904-32.597333s12.501333-32.597333 27.904-32.597334h76.288v-506.453333A77.312 77.312 0 0 1 176.853333 357.546667l282.026667-121.216V85.205333c0-8.874667 1.877333-17.536 5.461333-25.557333 15.744-35.242667 57.642667-48.64 91.605334-37.12l374.101333 129.365333 0.085333 0.042667c30.293333 10.325333 53.930667 37.376 53.930667 71.210667v279.594666a29.866667 29.866667 0 1 1-59.733333 0V223.146667c0-4.138667-3.157333-11.178667-13.44-14.677334L536.746667 79.104z m-77.909333 222.250667L201.557333 411.946667a17.621333 17.621333 0 0 0-8.789333 15.402666v506.496h266.112V301.354667z" fill="#2c2c2c" p-id="5051"></path><path d="M621.696 322.005333c0-18.005333 14.592-32.597333 32.597333-32.597333h142.08a32.597333 32.597333 0 1 1 0 65.152h-142.08a32.597333 32.597333 0 0 1-32.597333-32.554667zM654.293333 425.301333a32.597333 32.597333 0 0 0 0 65.152h68.778667a32.597333 32.597333 0 1 0 0-65.152h-68.778667zM979.797333 594.901333a25.6 25.6 0 0 0-51.2 0v174.72l-65.194666 18.688V660.053333a25.6 25.6 0 0 0-51.2 0v156.586667a29.866667 29.866667 0 0 0 38.101333 28.714667l78.293333-22.485334v131.285334a25.6 25.6 0 1 0 51.2 0v-164.693334V594.901333zM769.365333 609.877333a25.6 25.6 0 0 0-43.221333-27.52l-87.936 138.112a29.866667 29.866667 0 0 0 29.056 45.653334l32.085333-4.181334-58.453333 79.786667a29.866667 29.866667 0 0 0 30.634667 46.805333l81.792-18.261333a25.6 25.6 0 0 0-11.136-49.92l-26.453334 5.845333 54.4-74.24a29.866667 29.866667 0 0 0-27.989333-47.274666l-36.181333 4.736 63.402666-99.541334zM785.237333 935.850667a25.6 25.6 0 0 1-18.773333 30.933333l-100.181333 24.533333a25.6 25.6 0 0 1-12.202667-49.749333l100.224-24.490667a25.6 25.6 0 0 1 30.933333 18.773334z" fill="#2c2c2c" p-id="5052"></path></svg>