<?xml version="1.0" standalone="no"?><!DOCTYPE svg PUBLIC "-//W3C//DTD SVG 1.1//EN" "http://www.w3.org/Graphics/SVG/1.1/DTD/svg11.dtd"><svg t="1691632545261" class="icon" viewBox="0 0 1024 1024" version="1.1" xmlns="http://www.w3.org/2000/svg" p-id="4909" xmlns:xlink="http://www.w3.org/1999/xlink" width="48" height="48"><path d="M873.3 764.6c25.9-37.1 41.1-82.3 41.1-131 0-97.3-60.7-180.4-146.2-213.6 0.1 3.8 0.3 7.7 0.3 11.6 0 163.5-123.2 298.1-281.9 316.3 39.6 68.7 113.7 114.9 198.6 114.9 18.2 0 35.8-2.1 52.8-6.1 24.3-5.7 108.1 85.7 128.7 73 26.7-16.5-11.3-139.4 6.6-165.1z" p-id="4910"></path><path d="M748.3 400.1c-1.3-36.4-8.8-71.3-21.3-103.7C680.8 177.5 565.3 93.2 430.1 93.2c-175.9 0-318.5 142.6-318.5 318.5 0 67.7 21.1 130.4 57.1 182 24.9 35.7-27.9 206.4 9.2 229.3 28.6 17.7 145.1-109.3 178.8-101.4 7.2 1.7 14.5 3.1 21.9 4.3 16.7 2.7 33.9 4.2 51.4 4.2 12.4 0 24.6-0.8 36.6-2.2 158.6-18.2 281.9-152.8 281.9-316.3 0-3.8-0.1-7.7-0.2-11.5z m-372 206.4c0-28.8 23.4-52.2 52.2-52.2 28.8 0 52.2 23.4 52.2 52.2 0 28.8-23.4 52.2-52.2 52.2-28.8 0-52.2-23.3-52.2-52.2z m120.5-396.4l-51.2 305.4h-40.4l-45.8-305.4c-2.7-25.6 24.2-55.4 67.3-55.4 47.3 0 74.2 30.6 70.1 55.4z" p-id="4911"></path></svg>