<?xml version="1.0" standalone="no"?><!DOCTYPE svg PUBLIC "-//W3C//DTD SVG 1.1//EN" "http://www.w3.org/Graphics/SVG/1.1/DTD/svg11.dtd"><svg t="1687849493996" class="icon" viewBox="0 0 1024 1024" version="1.1" xmlns="http://www.w3.org/2000/svg" p-id="2877" xmlns:xlink="http://www.w3.org/1999/xlink" width="16" height="16"><path d="M192 416m153.92 0l332.16 0q153.92 0 153.92 153.92l0 76.16q0 153.92-153.92 153.92l-332.16 0q-153.92 0-153.92-153.92l0-76.16q0-153.92 153.92-153.92Z" fill="#1C0D00" p-id="2878"></path><path d="M512 256h-64l-128 240h64l128-240zM512 256h64l128 240h-64l-128-240z" fill="#FF7F00" p-id="2879"></path><path d="M288 496m16 0l96 0q16 0 16 16l0 0q0 16-16 16l-96 0q-16 0-16-16l0 0q0-16 16-16Z" fill="#F2F2F2" p-id="2880"></path><path d="M608 496m16 0l96 0q16 0 16 16l0 0q0 16-16 16l-96 0q-16 0-16-16l0 0q0-16 16-16Z" fill="#F2F2F2" p-id="2881"></path><path d="M416 256m24 0l144 0q24 0 24 24l0 0q0 24-24 24l-144 0q-24 0-24-24l0 0q0-24 24-24Z" fill="#1C0D00" p-id="2882"></path></svg>