<?xml version="1.0" standalone="no"?><!DOCTYPE svg PUBLIC "-//W3C//DTD SVG 1.1//EN" "http://www.w3.org/Graphics/SVG/1.1/DTD/svg11.dtd"><svg t="1687831840644" class="icon" viewBox="0 0 1024 1024" version="1.1" xmlns="http://www.w3.org/2000/svg" p-id="2629" xmlns:xlink="http://www.w3.org/1999/xlink" width="16" height="16"><path d="M522.453333 55.082667c59.477333 20.522667 124.928 49.621333 196.458667 87.253333 71.189333 37.482667 143.274667 80.746667 216.256 129.770667a32 32 0 0 1 4.181333 49.792 1022.293333 1022.293333 0 0 1-71.637333 62.037333 327.68 327.68 0 0 1 16.469333 78.826667 117.376 117.376 0 0 1-10.88 228.885333C831.146667 853.973333 683.669333 970.666667 512 970.666667S192.874667 853.994667 150.677333 691.626667a117.376 117.376 0 0 1-10.858666-228.864c2.304-27.370667 7.914667-53.781333 16.448-78.848a1019.306667 1019.306667 0 0 1-71.616-62.016 32 32 0 0 1 4.352-49.92c78.122667-51.712 150.144-94.933333 216.106666-129.621334 66.218667-34.858667 131.562667-63.914667 196.053334-87.125333a32 32 0 0 1 21.269333-0.149333z m290.389334 368.554666l-8.746667 5.696C707.562667 491.349333 610.133333 522.666667 512 522.666667c-101.077333 0-201.386667-33.216-300.8-99.008A265.066667 265.066667 0 0 0 202.666667 490.666667v32H170.666667a53.333333 53.333333 0 1 0 3.754666 106.538666l28.373334-1.962666 5.269333 27.946666C235.456 800.128 362.709333 906.666667 512 906.666667s276.544-106.538667 303.936-251.477334l5.290667-27.946666 28.373333 1.962666A53.333333 53.333333 0 1 0 853.333333 522.666667h-32.021333V490.666667c0-23.146667-2.944-45.610667-8.490667-67.029334zM405.333333 533.333333v106.666667h-85.333333v-106.666667h85.333333z m298.666667 0v106.666667h-85.333333v-106.666667h85.333333z m33.706667-138.666666l-451.413334 0.021333C362.133333 437.461333 437.333333 458.666667 512 458.666667s149.888-21.205333 225.706667-64zM512.213333 119.338667a1495.232 1495.232 0 0 0-177.301333 79.658666c-54.229333 28.544-112.938667 63.168-176.149333 103.893334 11.136 9.728 22.250667 19.008 33.365333 27.84l639.765333-0.021334a913.984 913.984 0 0 0 33.493334-27.968 2245.290667 2245.290667 0 0 0-176.298667-103.744c-64.490667-33.92-123.477333-60.48-176.896-79.658666z" fill="#979797" p-id="2630"></path></svg>