<?xml version="1.0" standalone="no"?><!DOCTYPE svg PUBLIC "-//W3C//DTD SVG 1.1//EN" "http://www.w3.org/Graphics/SVG/1.1/DTD/svg11.dtd"><svg t="1687854766958" class="icon" viewBox="0 0 1024 1024" version="1.1" xmlns="http://www.w3.org/2000/svg" p-id="1689" xmlns:xlink="http://www.w3.org/1999/xlink" width="16" height="16"><path d="M299.45 697.67l-90.2-7.89a27 27 0 1 0-4.71 53.79l90.2 7.89q1.2 0.1 2.38 0.1a27 27 0 0 0 2.32-53.9zM844 714.32a27 27 0 0 0-29.25-24.54l-90.2 7.89a27 27 0 0 0 2.32 53.9c0.79 0 1.58 0 2.38-0.1l90.2-7.89A27 27 0 0 0 844 714.32z" p-id="1690"></path><path d="M954.89 613.25a26.9 26.9 0 0 0-1.21-10.84c-14.49-44.64-41.76-84.67-81.18-119.26l42-11.27a61.8 61.8 0 0 0-32-119.39l-33 8.84A550.07 550.07 0 0 0 815 256a27.15 27.15 0 0 0-1.26-2.5c-0.11-0.19-0.22-0.36-0.33-0.54l-0.34-0.56c-0.18-0.29-0.38-0.57-0.57-0.85l-0.15-0.22c-0.21-0.29-0.42-0.58-0.64-0.86l-0.14-0.18a24.5 24.5 0 0 0-0.64-0.79l-0.2-0.24-0.6-0.67-0.29-0.32-0.52-0.53-0.44-0.43-0.4-0.37-0.61-0.55-0.25-0.21-0.81-0.66-0.07-0.05a26.89 26.89 0 0 0-10.55-4.93q-5.92-1.32-11.89-2.59a75.32 75.32 0 0 0-59-121.94H298.93a75.26 75.26 0 0 0-59 121.9c-4 0.85-7.95 1.74-11.9 2.63a27 27 0 0 0-19.57 17.37 558.73 558.73 0 0 0-33.63 103.55l-33.42-8.95a61.8 61.8 0 0 0-32 119.4l42.16 11.3c-39.06 34.31-66.35 74.32-81.25 119.21a26.9 26.9 0 0 0-1.27 10.93 27.25 27.25 0 0 0-0.29 3 26.09 26.09 0 0 0 0.24 4.15L88 791a26.87 26.87 0 0 0 25 24l53.41 3.6 26.11 71.46A27.14 27.14 0 0 0 217.94 908h101a27.13 27.13 0 0 0 25.35-17.86l22.25-60.83h290.91l22.25 60.9A27.12 27.12 0 0 0 705.06 908h101a27.13 27.13 0 0 0 25.35-17.86l26.11-71.37v-0.05l53.41-3.57h0.14l1.15-0.11h0.19l1.14-0.17h0.21l1.08-0.21 0.26-0.06 1-0.24 0.34-0.09 0.82-0.25 0.45-0.14 0.51-0.18a26.79 26.79 0 0 0 3.91-1.75h0.08l0.92-0.53 0.16-0.09 0.84-0.54 0.22-0.14 0.76-0.54 0.27-0.2 0.67-0.52 0.34-0.28 0.58-0.49 0.41-0.36 0.48-0.45 0.49-0.48 0.37-0.38 0.59-0.64 0.24-0.26q0.38-0.43 0.73-0.88l0.06-0.07a26.9 26.9 0 0 0 2.81-4.34q0.29-0.55 0.55-1.12l0.13-0.3c0.12-0.28 0.25-0.56 0.36-0.84l0.2-0.52 0.24-0.63c0.08-0.21 0.16-0.47 0.24-0.71l0.13-0.64c0.09-0.28 0.17-0.57 0.24-0.86l0.09-0.34c0.08-0.32 0.16-0.64 0.23-1l0.05-0.25q0.1-0.51 0.19-1v-0.24q0.08-0.51 0.14-1v-0.15l19-170.59q0.09-0.79 0.14-1.59v-0.61-0.7a26.89 26.89 0 0 0-0.19-4.42z m-257.58 162H327l-187.81-12.51-13.08-117.25 384.69 14.3h2l385.08-14.31-13.07 117.26zM253.41 290.4c16.47-3.48 33.14-6.4 49.74-9.4a942.1 942.1 0 0 1 118.65-14h180.82a942.1 942.1 0 0 1 118.64 14c16.58 3 33.25 5.91 49.72 9.39A496.31 496.31 0 0 1 808 461H216.39a499.34 499.34 0 0 1 37.02-170.6z m258.66-81c-9.71 0-19.08 0.12-29.08 0.33V170h58v39.69c-8.99-0.21-19.25-0.33-28.91-0.33zM492.92 515h38.17l15.29 87.76c0.1 0.59 0.25 1.16 0.38 1.74l-35 1.3-34.56-1.29c0.14-0.58 0.28-1.16 0.39-1.75zM891 591.71l-291.39 10.82a26.94 26.94 0 0 0 0-9L585.9 515h240.54c28.66 22.92 50.26 48.62 64.56 76.71z m5.55-187a7.91 7.91 0 0 1 9.56 5.52 7.91 7.91 0 0 1-5.52 9.55L860.2 430.6q-0.7-7.88-1.62-15.72z m-150-213.16c0 11.67-9.49 21.5-21.16 21.5H604.43c-3.08-1-6.43-0.81-9.43-1V170h130.33c11.67 0 21.16 9.83 21.16 21.5zM298.93 170H429v42c-3 0.19-6 0-9 1H298.93c-11.67 0-21.16-9.83-21.16-21.5s9.49-21.5 21.16-21.5z m-181 240.17a7.91 7.91 0 0 1 9.56-5.52l38.39 10.29q-0.93 7.84-1.63 15.72l-40.8-10.93a7.91 7.91 0 0 1-5.53-9.56zM197.71 515H438.1l-13.67 78.49a27 27 0 0 0 0 9.05l-291.19-10.83c14.47-28.29 36.05-54 64.47-76.71z m39.1 339l-11.39-31.26 84 5.66-9.34 25.6z m550.38 0h-63.27l-9.34-25.66 84-5.52z" p-id="1691"></path></svg>