<?xml version="1.0" standalone="no"?><!DOCTYPE svg PUBLIC "-//W3C//DTD SVG 1.1//EN" "http://www.w3.org/Graphics/SVG/1.1/DTD/svg11.dtd"><svg t="1687851431004" class="icon" viewBox="0 0 1024 1024" version="1.1" xmlns="http://www.w3.org/2000/svg" p-id="4134" xmlns:xlink="http://www.w3.org/1999/xlink" width="16" height="16"><path d="M862.70419312 522.81466675c-1.39045716 1.69944763-3.39889526 3.16715241-4.01687622 5.09834289-5.71632385 16.60823823-9.88769531 33.8344574-17.14897156 49.74746705-11.74163818 25.80070495-29.43134308 47.73902893-49.90196229 66.97368621-20.0843811 18.92566681-40.47775268 37.85133362-62.33882904 54.61406708-50.51994323 38.5465622-135.18333435 82.88669587-208.18233489 87.36705781 12.74585724-7.10678101 25.02822876-12.59136201 35.68840026-20.31612397 21.16584778-15.29502869 42.71793366-30.43556213 61.64360047-48.27976227 18.53942872-17.53520966 35.68840027-37.31060029 50.36544799-58.24470519 24.02400971-34.29794312 42.4861908-71.29955292 34.45243836-115.79418183-5.02109528-27.96363831-23.25153352-46.11682892-45.96233368-59.32617188-39.24179078-22.78804779-82.96394348-29.8948288-127.45857238-32.83023835-1.00421906-0.07724763-2.16293335 0.46348572-4.55760957 1.08146668 10.27393342 31.82601929 20.54786682 63.3430481 30.74455261 94.93732452-84.74063873-76.47514343-182.53612519-125.29563904-295.08590698-151.17359161 112.62702942-25.64620972 210.11352539-74.93019104 295.24040223-150.86460113-10.35118103 31.67152404-20.70236206 63.3430481-31.4397812 96.32778168 18.23043823 1.77669526 35.68840027 3.24440003 52.99186707 5.09834289 57.93571472 6.33430481 115.17620087 15.83576203 170.09925843 36.69261933 32.90748596 12.51411438 63.26580048 29.12235261 87.21256256 55.38654327 11.35540009 12.43686677 20.00713349 27.26840974 22.86529541 44.72637176 0.54073334 3.24440003 3.08990479 6.10256196 4.7121048 9.11521912 0.07724763 9.88769531 0.07724763 19.77539063 0.07724762 29.66308594z" fill="#3FA9F5" p-id="4135"></path><path d="M468.12335205 548.07463837C380.67904663 472.37197112 281.72484588 422.08377075 167.47561646 396.59205627c114.32647705-25.182724 212.89443969-75.77991486 300.57048797-150.63285827-4.7121048 12.51411438-7.18402863 26.80492402-14.83154297 37.07885742-7.49301911 10.04219055-19.85263825 16.76273347-30.89904785 23.63777161-45.80783844 28.81336212-93.77861023 53.14636231-145.45726776 69.2911148-21.08860016 6.56604767-42.56343842 12.12787628-63.88378143 18.07594299-1.62220001 0.46348572-3.24440003 1.00421906-5.02109528 3.47614289 14.98603821 4.01687622 30.04932404 7.72476196 44.95811463 11.97338104 52.76012422 15.14053344 102.97107697 36.38362885 149.86038207 65.42873383 15.29502869 9.42420959 30.43556213 19.00291443 45.57609559 28.65886688 2.16293335 1.39045716 4.48036193 3.39889526 5.40733337 5.63907624 4.94384766 12.9776001 9.57870484 25.87795258 14.36805725 38.85555267z" fill="#3FA9F5" p-id="4136"></path></svg>